inDegrees=no
num_controls=7
num_derivatives=13
num_iterations=116
num_multipliers=7
num_parameters=0
num_slacks=7
num_states=26
objective=0.431109
objective_accelerations=0.050520
objective_balance=0.006883
objective_effort=0.031409
objective_height=0.341134
objective_ligament=0.001162
solver_duration=1484.469379
status=Solve_Succeeded
success=true
DataType=double
version=3
OpenSimVersion=4.5
endheader
time	/jointset/ground_pelvis/pelvis_tilt/value	/jointset/ground_pelvis/pelvis_tx/value	/jointset/ground_pelvis/pelvis_ty/value	/jointset/hip_l/hip_flexion_l/value	/jointset/hip_l/hip_adduction_l/value	/jointset/hip_l/hip_rotation_l/value	/jointset/back/lumbar_extension/value	/jointset/patellofemoral_l/patellar_flexion_l/value	/jointset/knee_l/knee_flexion_l/value	/jointset/knee_l/knee_adduction_l/value	/jointset/knee_l/knee_rotation_l/value	/jointset/ankle_l/ankle_angle_l/value	/jointset/subtalar_l/subtalar_angle_l/value	/jointset/ground_pelvis/pelvis_tilt/speed	/jointset/ground_pelvis/pelvis_tx/speed	/jointset/ground_pelvis/pelvis_ty/speed	/jointset/hip_l/hip_flexion_l/speed	/jointset/hip_l/hip_adduction_l/speed	/jointset/hip_l/hip_rotation_l/speed	/jointset/back/lumbar_extension/speed	/jointset/patellofemoral_l/patellar_flexion_l/speed	/jointset/knee_l/knee_flexion_l/speed	/jointset/knee_l/knee_adduction_l/speed	/jointset/knee_l/knee_rotation_l/speed	/jointset/ankle_l/ankle_angle_l/speed	/jointset/subtalar_l/subtalar_angle_l/speed	/forceset/tau_hip_flexion_l	/forceset/tau_hip_adduction_l	/forceset/tau_hip_rotation_l	/forceset/tau_knee_flexion_l	/forceset/tau_ankle_angle_l	/forceset/tau_subtalar_angle_l	/forceset/tau_lumbar_extension	lambda_cid13_p0	lambda_cid13_p1	lambda_cid13_p2	lambda_cid13_p3	lambda_cid13_p4	lambda_cid13_p5	lambda_cid14_p0	/jointset/ground_pelvis/pelvis_tilt/accel	/jointset/ground_pelvis/pelvis_tx/accel	/jointset/ground_pelvis/pelvis_ty/accel	/jointset/hip_l/hip_flexion_l/accel	/jointset/hip_l/hip_adduction_l/accel	/jointset/hip_l/hip_rotation_l/accel	/jointset/back/lumbar_extension/accel	/jointset/patellofemoral_l/patellar_flexion_l/accel	/jointset/knee_l/knee_flexion_l/accel	/jointset/knee_l/knee_adduction_l/accel	/jointset/knee_l/knee_rotation_l/accel	/jointset/ankle_l/ankle_angle_l/accel	/jointset/subtalar_l/subtalar_angle_l/accel	gamma_cid13_p0	gamma_cid13_p1	gamma_cid13_p2	gamma_cid13_p3	gamma_cid13_p4	gamma_cid13_p5	gamma_cid14_p0
0	-0.1565836366267517	0.05724076551904372	0.8978801103178599	0.3774924667018715	-0.2608312522078569	-0.2437275103778885	-0.01265067647494873	0.03223648243721435	0.03223648243721463	-0.1745326874558382	0.1466257172381747	-0.04231377076293093	-0.01129713332749077	0	0	0	0	0	0	0	0	0	0	0	0	0	0.1402730076091188	-0.07157339259403739	-0.04713445997012965	-0.3107673513186834	0.337647626762842	-0.04780846226330609	-0.08274046074788322	66.83433603633294	4.481512006427009	4.113990315478668	-22.29839615410478	-589.1018902659645	-66.09690516309243	-38.23009725418222	-2.769806401952939	-1.48977886543576	-0.980388274613874	11.06436803786602	-1.364003613770189	3.458750156421739	-5.515262509120362	10.89423498433252	10.89423498432861	0.02613246533227076	0.3459979456638341	2.82717737932515	-0.7372003143245927	-5.176087516619087e-08	7.097724910401557e-08	1.676238648945769e-07	5.232688008883129e-09	6.504788291018633e-08	-1.187500402385536e-07	-2.555052965997299e-08
0.01	-0.1567165945820148	0.05716665439657106	0.8978322349312851	0.3780318237422651	-0.2608986070695394	-0.2435557543488933	-0.01292783485770484	0.03276797612026129	0.03276797612025818	-0.1745326537892822	0.1466397222898783	-0.0421775796458168	-0.0113343367565805	-0.02649087792156371	-0.01481721782292782	-0.009545346362683296	0.1074386239089411	-0.01335314027588336	0.03414394722697722	-0.05511217704940265	0.1057187657280466	0.1057187657280302	7.139876620330754e-05	0.002797761792087254	0.02699060221125596	-0.007382319869583033	0.1340600973448883	-0.08198453177133561	-0.04561648130149667	-0.3017630687924214	0.3212413121698313	-0.03196190851635613	-0.0780430966367664	62.08939146664351	-1.313257599481616	4.744752634664622	-19.14395656448634	-590.2782421976553	-77.36823701028	-38.24573176000123	-2.573632871563527	-1.47694119354679	-0.9371351646312942	10.51868166183323	-1.30333533836516	3.361105944321108	-5.461270377584287	10.32370684495056	10.32370684495066	0.007380155455239255	0.2461576777911431	2.597855070915836	-0.7300231267033844	-7.079266598636737e-08	1.104458687271539e-07	1.587465596669883e-07	3.241808163073052e-08	-9.07408097373961e-08	-5.245597437671208e-08	-2.49596742757696e-08
0.02	-0.1571114421933566	0.05694452150530406	0.8976898006115767	0.3796325814406308	-0.261095966554753	-0.2430487810599297	-0.013746530025902	0.03433925935617016	0.03433925935617067	-0.1745299588210342	0.1466816034358648	-0.04177891182081191	-0.01144361844505179	-0.05237793121534575	-0.02960435375886921	-0.01891178662673573	0.2122801315948922	-0.02600092470647343	0.06704345199337006	-0.1083073570881688	0.2079579105724867	0.2079579105724773	0.0005322604600428961	0.00557521885657243	0.05249534157810985	-0.0144156518762954	0.1278471870806552	-0.09239567094864722	-0.04409850263284488	-0.2927587862661535	0.3048349975768209	-0.01611535476941929	-0.07334573252565563	57.43194371637166	-7.125797977683711	5.381152706977995	-16.20861012921898	-590.1660760820936	-88.52556360780919	-38.29188548658526	-2.649041476396573	-1.483762488038512	-0.9446070548876837	10.54494479326808	-1.222932444711306	3.209861664304861	-5.131863106993066	10.19831080761119	10.19831080761199	0.1040250508599694	0.3419370001433948	2.530004810444752	-0.6674027417502363	-8.982445680654388e-08	1.499144883502922e-07	1.498692544393997e-07	5.960347525257792e-08	-2.465295023849786e-07	1.383809148512945e-08	-2.43688188915662e-08
0.03	-0.1577617965015801	0.0565759506746582	0.8974544093959065	0.3822680232414044	-0.2614167516385174	-0.242218178915231	-0.01508643295923928	0.0369176641032966	0.03691766410329594	-0.1745215194315631	0.1467511805639008	-0.04113002389689789	-0.01162140972496881	-0.07752461760630953	-0.04397451426837411	-0.02814918516082862	0.3142403187340597	-0.03809574198453652	0.09895633110136956	-0.1592718048021392	0.3073211634521931	0.3073211634521991	0.001115859713606585	0.00832781988513181	0.07728181638601309	-0.02108869591170833	0.1230956724283661	-0.08668859411027863	-0.04356600298812804	-0.2895664187086417	0.3028043521111193	-0.01952679229663369	-0.06918851802146868	56.67346523925613	-5.645261125562363	5.298006760466953	-16.62462128149825	-590.3482363843466	-84.80470235032179	-38.36686245895078	-2.422242275197746	-1.393336086545779	-0.9107654860548385	9.936357047949867	-1.193730872336031	3.16388482543372	-5.01852188703514	9.745056089432477	9.745056089434332	0.02960156996255223	0.240046376178948	2.452899050494581	-0.6592086554591889	-1.214674777784066e-07	1.447677613010794e-07	2.144502900954002e-07	8.420112346251242e-08	-3.696339627235364e-07	-1.535056322457306e-08	-3.626690788599932e-08
0.04	-0.1586585696846679	0.05606773958808951	0.8971271523482183	0.3859060271883091	-0.2618566797956582	-0.2410720712211754	-0.01692393762640452	0.04047764609147624	0.04047764609147587	-0.1745084292080795	0.146847908646617	-0.04023328517799879	-0.01186432212944456	-0.101661706187326	-0.05753240494343621	-0.03728495303030137	0.4127925608215873	-0.04982953938189183	0.1301445618648175	-0.2078277038535545	0.4042733587831826	0.4042733587832002	0.001462427261488053	0.01100540979236044	0.1020655005751725	-0.02743987678801758	0.1183441577760807	-0.08098151727190452	-0.04303350334340963	-0.2863740511511298	0.3007737066454186	-0.02293822982384252	-0.06503130351728174	55.9960212135089	-4.177704376276005	5.215553799637951	-17.24762039077673	-589.3565532999015	-80.97088720116611	-38.46879232036125	-2.447121914407131	-1.321308521149938	-0.9242809219636586	9.863355782940102	-1.150728468569781	3.064931995394557	-4.650153374482034	9.716099297867801	9.716099297867855	0.05661870972346788	0.326934775877246	2.529446686695995	-0.6030301099295267	-1.533705241142216e-07	1.387011301967665e-07	2.805459307180727e-07	1.087454160969436e-07	-4.920645213650009e-07	-4.650793382234866e-08	-4.84225008882394e-08
0.05	-0.1597920909676541	0.05542731855661474	0.8967087842017001	0.3905138807848857	-0.2624115791022838	-0.2396180726612982	-0.01923495259856897	0.04499488257258075	0.0449948825725801	-0.1744923604190179	0.1469712529491467	-0.03908973132175417	-0.01216885819068841	-0.1248795032607442	-0.0704831700641467	-0.0463904385002001	0.5082757641035541	-0.06103509880576044	0.1605047670838612	-0.2540102851672122	0.4987022256816476	0.4987022256816591	0.001773447064572915	0.01364901444200541	0.1265279504898407	-0.03339007389271584	0.1113802738979326	-0.07828981883604179	-0.04181823429052577	-0.2792817232273134	0.2905766158919938	-0.02077064766833289	-0.05955597896591464	52.85793081910072	-4.635677925655587	5.364010262315948	-15.59052238276452	-588.6136752356729	-80.80781780040007	-38.59533090253841	-2.234659569079688	-1.271643866968333	-0.9040460957782359	9.315425226291499	-1.088221465555293	2.998965634639144	-4.547559698013894	9.235533405145318	9.23553340514435	0.02171168723924956	0.2308677338722596	2.38703572465802	-0.5794775872581629	-1.691716198496409e-07	1.511727293830167e-07	3.01672687254304e-07	1.247674067289059e-07	-5.704421699502219e-07	-4.008570727054244e-08	-5.180392829344837e-08
